<svg width="76" height="76" fill="none" xmlns="http://www.w3.org/2000/svg"><path d="M21.533 43.066h2.534V45.6h-2.534v-2.534zm5.067 0h2.533V45.6H26.6v-2.534zm5.066 0H34.2V45.6h-2.534v-2.534zm-10.133 5.067h2.534v2.533h-2.534v-2.533zm5.067 0h2.533v2.533H26.6v-2.533zm5.066 0H34.2v2.533h-2.534v-2.533zm5.067 0h2.533v2.533h-2.533v-2.533zm5.067 0h2.533v2.533H41.8v-2.533zM21.533 53.2h2.534v2.533h-2.534V53.2zm5.067 0h2.533v2.533H26.6V53.2zm5.066 0H34.2v2.533h-2.534V53.2zm5.067 0h2.533v2.533h-2.533V53.2zm5.067 0h2.533v2.533H41.8V53.2zm-20.267 5.066h2.534V60.8h-2.534v-2.534zm5.067 0h2.533V60.8H26.6v-2.534zm5.066 0H34.2V60.8h-2.534v-2.534zm5.067 0h2.533V60.8h-2.533v-2.534zm5.067 0h2.533V60.8H41.8v-2.534zm-20.267 5.067h2.534v2.533h-2.534v-2.533zm5.067 0h2.533v2.533H26.6v-2.533zm5.066 0H34.2v2.533h-2.534v-2.533zm5.067 0h2.533v2.533h-2.533v-2.533zm5.067 0h2.533v2.533H41.8v-2.533zM21.533 68.4h2.534v2.533h-2.534v-2.534zm5.067 0h2.533v2.533H26.6v-2.534zm5.066 0H34.2v2.533h-2.534v-2.534zm5.067 0h2.533v2.533h-2.533v-2.534zm5.067 0h2.533v2.533H41.8v-2.534z" fill="#F56C08"/><path d="M74.733 3.8h-8.867V1.267C65.866.567 65.3 0 64.6 0H51.933c-.7 0-1.267.567-1.267 1.267V3.8h-49.4C.568 3.8 0 4.367 0 5.067v5.066c0 .7.567 1.267 1.267 1.267h3.8v24.066c0 .7.567 1.267 1.266 1.267A1.267 1.267 0 115.067 38H2.533c.004.927.349 1.82.97 2.51l-3.25 4.33.017.012A1.24 1.24 0 000 45.6v5.066c0 .337.134.658.371.896l2.533 2.533c.238.238.56.371.896.371h5.067c.335 0 .658-.133.895-.37l2.534-2.534c.237-.238.37-.56.37-.896V45.6a1.24 1.24 0 00-.27-.748l.017-.012-3.249-4.33A3.776 3.776 0 007.6 34.416V11.4h43.066v1.267c0 .7.567 1.266 1.267 1.266h2.533v59.533H49.4V22.8h-2.534v5.066h-7.6v-2.533h-2.533v2.533h-7.6V26.6H26.6v1.266H19v-3.8h16.466v-2.533H19v-5.067h-2.534v57h-2.008l-5.963-5.962a1.266 1.266 0 00-1.79 0L.741 73.466H0V76h76v-2.533h-.988a3.765 3.765 0 00-1.825-6.186 3.8 3.8 0 10-7.042 0 3.765 3.765 0 00-1.825 6.186h-2.254V13.933H64.6c.699 0 1.266-.566 1.266-1.266V11.4h8.867c.7 0 1.266-.567 1.266-1.267V5.067c0-.7-.567-1.267-1.266-1.267zm-67.766 38l1.9 2.533H3.8L5.7 41.8h1.267zm3.166 8.342l-1.79 1.79h-4.02l-1.79-1.79v-3.276h7.6v3.276zM69.286 6.333l-3.42 2.28v-2.28h3.42zM53.2 2.533h5.066V7.6H53.2V2.533zM19 6.587l3.42 2.28h-6.84L19 6.587zm-7.6 2.027l-3.42-2.28h6.84l-3.42 2.28zm11.78-2.28h6.84l-3.42 2.28-3.42-2.28zm11.02.253l3.42 2.28h-6.84l3.42-2.28zm4.18-.254h6.84l-3.42 2.28-3.42-2.28zm-35.847 0h.887l3.8 2.534H2.533V6.333zM45.98 8.867l3.8-2.534h.887v2.534H45.98zm13.554 60.42l-2.28-3.42 2.28-3.42v6.84zm0-30.4l-2.28-3.42 2.28-3.42v6.84zm-2.534.76l2.28 3.42-2.28 3.42v-6.84zm0-8.36v-6.84l2.28 3.42-2.28 3.42zm0 23.56l2.28 3.42-2.28 3.42v-6.84zm2.534-.768l-2.28-3.413 2.28-3.42v6.833zm-2.28-33.813l2.28-3.42v6.84l-2.28-3.42zM57 16.087v-2.153h1.434L57 16.087zM46.867 30.4v12.666h-7.6V30.4h7.6zm-10.133 0v10.893l-2.913-2.879a1.27 1.27 0 00-.887-.366h-3.8V30.4h7.6zm-10.133 0v2.111H19V30.4h7.6zm-19 39.79l3.275 3.276h-6.55L7.6 70.191zM19 73.467V35.045h7.6v4.274c0 .7.567 1.267 1.266 1.267h4.546l4.7 4.648c.237.233.556.365.888.366h8.866v27.866H19zm38-3.42l2.28 3.42H57v-3.42zM72.2 72.2a1.266 1.266 0 11-.001-2.532 1.266 1.266 0 010 2.532zm-2.534-7.6a1.267 1.267 0 110 2.534 1.267 1.267 0 010-2.533zm-2.533 5.067a1.267 1.267 0 110 2.533 1.267 1.267 0 010-2.533zm-3.8-58.266H53.2v-1.267h6.333c.7 0 1.267-.566 1.267-1.266V2.533h2.533V11.4zm6.713-2.533l3.42-2.28v2.28h-3.42z" fill="#F56C08"/></svg>