<svg width="76" height="76" fill="none" xmlns="http://www.w3.org/2000/svg"><path d="M24.067 29.133H26.6v2.534h-2.533v-2.534zm8.866 26.6h2.534v2.534h-2.534v-2.534zm7.6 0h2.534v2.534h-2.534v-2.534zm-3.8-5.066h2.534V53.2h-2.534v-2.533zM7.6 46.867h2.533V49.4H7.6v-2.533zm0 7.6h2.533V57H7.6v-2.533zm3.8-3.8h2.533V53.2H11.4v-2.533zm-3.8 11.4h2.533V64.6H7.6v-2.533zm0 6.333h2.533v2.533H7.6V68.4zm3.8-10.133h2.533V60.8H11.4v-2.533z" fill="#F56C08"/><path d="M70.656 73.467l-1.027-4.108A1.266 1.266 0 0068.4 68.4h-2.533V46.867h-2.534v1.454l-5.066 5.454v-5.733l5.066-5.454v1.745h2.534V19H72.2a1.266 1.266 0 001.133-.7l2.533-5.067a1.267 1.267 0 00-.237-1.462l-8.496-8.496V1.267A1.266 1.266 0 0065.867 0h-3.8a1.267 1.267 0 00-1.158.752l-.823 1.854L4.924 8.875A1.267 1.267 0 003.8 10.133V11.4H1.267a1.266 1.266 0 00-1.133 1.833L2.667 18.3A1.267 1.267 0 003.8 19h6.333v-2.533h-5.55l-1.267-2.534H19v2.534h-6.333V19h11.4v5.067H22.8a1.267 1.267 0 00-1.158.752l-2.533 5.7a1.266 1.266 0 00.058 1.143l2.533 4.433a1.267 1.267 0 001.1.638h1.267v2.01l-3.43 3.428a1.266 1.266 0 00-.305 1.296l1.266 3.8a1.267 1.267 0 001.202.866h5.067a1.266 1.266 0 001.266-1.266v-3.8H26.6V45.6h-2.887l-.73-2.191 3.245-3.246a1.266 1.266 0 00.372-.896v-2.534h1.267a1.266 1.266 0 001.1-.638l2.533-4.433a1.267 1.267 0 00.058-1.143l-2.534-5.7a1.266 1.266 0 00-1.157-.752H26.6V19h15.684L47 28.433a1.267 1.267 0 001.132.7h7.6V68.4H53.2a1.266 1.266 0 00-1.229.96l-1.027 4.107h-2.81v-19c0-.282-.095-.556-.267-.778l-2.351-3.022h.084v-3.8h-2.533v.65L39 42.29a1.267 1.267 0 00-1.953-.056L28.18 52.366c-.202.23-.313.527-.313.834v8.342l-4.171-4.171a1.264 1.264 0 00-1.792 0L19 60.275V48.133a1.267 1.267 0 00-.489-1l-11.4-8.866A1.267 1.267 0 006.333 38v-5.067H3.8V38a1.266 1.266 0 00-1.267 1.267v15.2h2.534V40.533h.832l10.568 8.22v14.056l-2.163 2.162a1.267 1.267 0 00-.37.896v7.6H5.066V57H2.533v16.467H0V76h76v-2.533h-5.344zM28.982 30.962l-1.85 3.238h-3.597l-1.85-3.238 1.938-4.362h3.42l1.94 4.362zm34.351 21.081v6.411l-5.066 5.455v-6.411l5.066-5.455zm0-33.043v.188l-5.066 5.454V19h5.066zm-5.066 9.364l5.066-5.454v5.823l-5.066 5.454v-5.823zm0 15.956v-6.41l5.066-5.455v6.411l-5.066 5.454zm13.15-27.853h-39.75v-2.534h41.017l-1.267 2.534zm.258-5.067h-4.542V6.858l4.542 4.542zM62.89 2.533h1.71V11.4h-5.65l3.94-8.867zM6.333 11.264l52.559-5.972-2.715 6.108H6.333v-.136zm15.2 5.203v-2.534h7.6v2.534h-7.6zM48.916 26.6l-1.266-2.533h3.017v-2.534h-4.284L45.116 19h10.617v7.6h-6.817zm9.35 41.03l5.067-5.453V68.4h-5.066v-.77zM34.2 68.4v5.067h-2.533v-7.6a1.268 1.268 0 00-.371-.896l-.896-.896v-.742h15.2v3.8H35.467A1.267 1.267 0 0034.2 68.4zm3.742-23.344L45.6 54.9v5.9H30.4v-7.124l7.543-8.62zm-13.875 28.41V68.4h-2.534v5.067h-5.066V66.39l6.333-6.333 6.333 6.333v7.076h-5.066zm12.666 0v-3.8H45.6v3.8h-8.867zm16.823 0l.633-2.533H67.41l.633 2.534H53.556z" fill="#F56C08"/></svg>