<svg width="76" height="76" fill="none" xmlns="http://www.w3.org/2000/svg"><path d="M67.247 53.512a1.115 1.115 0 00-1.216.242l-12.19 12.19a1.116 1.116 0 00.789 1.905h12.19c.617 0 1.116-.5 1.116-1.116v-12.19c0-.452-.272-.858-.689-1.031zm-9.925 12.106l8.383-8.382v8.382h-8.383z" fill="#F56C08"/><path d="M75.311 35.632a1.115 1.115 0 00-1.215.242l-3.341 3.34V16.5c0-.616-.5-1.115-1.116-1.115h-8.57l3.11-3.112.002-.001 2.998-2.998a3.38 3.38 0 00.996-2.405 3.38 3.38 0 00-.996-2.405L63.712.996A3.38 3.38 0 0061.307 0a3.38 3.38 0 00-2.405.996L44.515 15.383H9.889V4.348c0-.616-.5-1.116-1.116-1.116C3.936 3.232 0 7.168 0 12.006v47.38c0 .081.01.162.026.239a8.402 8.402 0 002.527 5.408 8.401 8.401 0 005.897 2.4h34.087l-6.42 6.419a1.116 1.116 0 00.789 1.904h37.979c.615 0 1.115-.5 1.115-1.115V36.663c0-.451-.272-.858-.689-1.031zM60.48 2.574a1.172 1.172 0 011.655 0l3.467 3.467a1.172 1.172 0 010 1.655l-2.21 2.21-5.123-5.122 2.21-2.21zm-3.788 3.788l5.121 5.122-2.046 2.046-5.122-5.121 2.046-2.047zm17.077 42.835h-2.058a1.115 1.115 0 100 2.231h2.058v3.361h-2.058a1.115 1.115 0 100 2.231h2.058v3.362h-2.058a1.115 1.115 0 100 2.23h2.058v3.362h-2.058a1.115 1.115 0 100 2.231h2.058v5.32H39.6l11.268-11.267a1.115 1.115 0 10-1.578-1.577l-4.521 4.52H8.45a6.184 6.184 0 01-6.214-6.018c.007-.212.023-.422.05-.63v-.003c.013-.1.028-.197.045-.295l.006-.034A6.49 6.49 0 012.6 57.22c.014-.04.027-.078.042-.116.027-.074.056-.146.085-.217l.026-.063a6.6 6.6 0 01.12-.264l.005-.01a6.567 6.567 0 014.564-3.57l.017-.004a6.55 6.55 0 01.28-.05l.046-.008a6.56 6.56 0 01.256-.033l.073-.008c.082-.009.166-.014.25-.02l.078-.005c.11-.006.22-.009.33-.009.616 0 1.116-.499 1.116-1.115V43.64a1.115 1.115 0 10-2.231 0v7.043a8.713 8.713 0 00-5.427 2.863v-41.54c0-3.226 2.349-5.916 5.427-6.447v33.619a1.116 1.116 0 002.23 0V17.614h32.396l-6.167 6.167a1.115 1.115 0 101.578 1.578l8.07-8.071.001-.001 7.301-7.3 5.122 5.121-.601.6-.002.002-22.492 22.493-5.122-5.122 4.434-4.433a1.115 1.115 0 10-1.578-1.578l-5.222 5.222a1.12 1.12 0 00-.079.088l-.023.032a1.254 1.254 0 00-.045.064c-.009.012-.016.025-.024.039a1.06 1.06 0 00-.082.172l-.01.023-3.655 10.354a1.14 1.14 0 00-.044.17h-3.71a1.115 1.115 0 100 2.23h30.892a1.115 1.115 0 100-2.23H28.662l6.803-2.401.017-.008c.026-.01.052-.02.078-.032l.03-.014c.027-.014.053-.028.08-.044l.024-.015c.027-.017.053-.036.079-.056l.02-.014a1.12 1.12 0 00.09-.08l22.954-22.955h9.687v23.83L52.567 57.403a1.115 1.115 0 101.578 1.578l19.624-19.625v9.842zm-40.715-9.88l-3.196 1.129-2.128-2.13 1.127-3.195 4.197 4.197z" fill="#F56C08"/></svg>