<svg width="76" height="65" fill="none" xmlns="http://www.w3.org/2000/svg"><path d="M35.15 53.865H13.586a4.354 4.354 0 100 2.078H35.15a4.353 4.353 0 100-2.078zM9.363 57.179a2.276 2.276 0 111.61-.665 2.278 2.278 0 01-1.609.668v-.003zm30.01-4.55a2.276 2.276 0 11-2.276 2.276 2.278 2.278 0 012.276-2.273v-.003z" fill="#F56C08"/><path d="M74.96 0H40.19c-.28.002-.547.112-.747.309l-8.556 8.556a1.07 1.07 0 00-.309.748v6.858h-6.21a1.04 1.04 0 00-.832.415l-5.95 7.885H4.799a1.035 1.035 0 00-1.04 1.04v13.311a1.04 1.04 0 001.04 1.04h9.315v5.379h-4.75a9.363 9.363 0 100 18.727h30.009a9.363 9.363 0 000-18.727h-4.745v-5.38h9.31a1.04 1.04 0 001.04-1.039V17.516a1.043 1.043 0 00-1.04-1.045h-5.343v-3.979l4.483-4.476h24.907V42.25h-9.452v-.469a4.606 4.606 0 00-4.602-4.601h-.196a1.037 1.037 0 00-1.039 1.039v5.07c.003.186.052.367.143.529l5.937 10.093a1.049 1.049 0 00.897.511H74.96A1.037 1.037 0 0076 53.384V1.034A1.034 1.034 0 0074.96 0zM32.657 11.157l3.86 1.603v3.71h-3.86v-5.313zm6.716 36.462a7.285 7.285 0 110 14.57h-4.038v-2.642a1.039 1.039 0 10-2.078 0v2.642H30.37v-2.642a1.04 1.04 0 10-2.078 0v2.642h-2.885v-2.642a1.039 1.039 0 10-2.079 0v2.642h-2.885v-2.642a1.04 1.04 0 10-2.078 0v2.642h-2.886v-2.642a1.039 1.039 0 10-2.078 0v2.642H9.363a7.286 7.286 0 010-14.57h4.75v2.38a1.039 1.039 0 102.079 0v-2.38h2.529v2.38a1.039 1.039 0 102.078 0v-2.38h2.53v2.38a1.039 1.039 0 102.078 0v-2.38h2.529v2.38a1.039 1.039 0 102.078 0v-2.38h2.535v2.38a1.039 1.039 0 102.078 0v-2.38h4.745zm-23.18-2.078v-5.38H32.55v5.38H16.192zM42.898 31.92H28.12v-7.208h14.778v7.208zm0-13.371v4.085H27.081a1.04 1.04 0 00-1.04 1.039v9.286a1.04 1.04 0 001.04 1.04h15.817v4.084H5.837v-4.346h13.418a1.039 1.039 0 100-2.078H5.837v-4.81h12.266a1.052 1.052 0 00.832-.41l5.95-7.89h18.013zm-5.587-7.713l-3.86-1.597 6.366-6.371 1.603 3.86-4.109 4.108zm6.027-4.898l-1.597-3.86h26.243v3.86H43.338zM54.773 39.4a2.528 2.528 0 011.68 2.381v.47h-1.68v-2.85zm19.149 12.944H60.266l-1.746-2.969h6.692a1.04 1.04 0 000-2.078h-7.915L55.55 44.33h18.37v8.016zm0-10.094h-3.86V8.016h3.86V42.25zm0-36.313h-3.86v-3.86h3.86v3.86z" fill="#F56C08"/></svg>