<svg width="38" height="50" fill="none" xmlns="http://www.w3.org/2000/svg"><path d="M19 0C8.523 0 0 8.523 0 19c0 5.893 3.048 12.737 9.061 20.341 4.4 5.565 8.737 9.411 8.92 9.572.578.51 1.452.517 2.039 0 .182-.16 4.518-4.007 8.919-9.572C34.952 31.737 38 24.893 38 19 38 8.523 29.477 0 19 0zm-8.473 26.96v-6.608a.481.481 0 00-.795-.366l-.514.441a1.54 1.54 0 01-2.004-2.34l10.784-9.243a1.541 1.541 0 012.004 0l10.784 9.243a1.54 1.54 0 11-2.004 2.34l-.514-.44a.481.481 0 00-.795.365v6.608c0 .85-.69 1.54-1.54 1.54H12.068a1.54 1.54 0 01-1.541-1.54z" fill="#F56C08"/><path d="M13.608 16.886v8.052c0 .266.216.481.481.481h9.822a.481.481 0 00.481-.481v-8.052a.481.481 0 00-.168-.366l-4.91-4.209a.481.481 0 00-.627 0l-4.91 4.21a.481.481 0 00-.169.365z" fill="#F56C08"/></svg>