<svg width="38" height="27" viewBox="0 0 38 27" fill="F56C08" xmlns="http://www.w3.org/2000/svg">
<path d="M25.1892 13.2572L38 21.356V4.8165L25.1892 13.2572Z" fill="#F56C08"/>
<path d="M0 4.8165V21.356L12.8108 13.2572L0 4.8165Z" fill="#F56C08"/>
<path d="M35.625 0H2.37504C1.18991 0 0.249414 0.8835 0.0712891 2.02113L19 14.4923L37.9288 2.02113C37.7507 0.8835 36.8102 0 35.625 0Z" fill="#F56C08"/>
<path d="M23.0138 14.6917L19.6532 16.9053C19.4537 17.0359 19.2281 17.1 19 17.1C18.772 17.1 18.5464 17.0359 18.3469 16.9053L14.9863 14.6894L0.0760498 24.1205C0.258925 25.2486 1.19467 26.125 2.37505 26.125H35.625C36.8054 26.125 37.7412 25.2486 37.9241 24.1205L23.0138 14.6917Z" fill="#F56C08"/>
</svg>
