<svg width="55" height="49" viewBox="0 0 55 49" fill="none" xmlns="http://www.w3.org/2000/svg">
<path d="M1.60893 39.0025H43.7202C44.0979 39.0025 44.4629 38.8703 44.7525 38.6295C45.1569 38.2908 54.3835 30.3535 54.9461 13.2201H9.71943C9.15899 28.7726 0.661753 36.0828 0.573448 36.1558C0.055759 36.5932 -0.134709 37.3077 0.0981925 37.9434C0.329482 38.5776 0.932253 39.0025 1.60893 39.0025Z" fill="#F56C08"/>
<path d="M53.3885 3.55166H45.3315V1.94026C45.3315 1.03787 44.6225 0.328857 43.7201 0.328857C42.8177 0.328857 42.1087 1.03787 42.1087 1.94026V3.55166H33.9443V1.94026C33.9443 1.03787 33.2352 0.328857 32.3329 0.328857C31.4305 0.328857 30.7215 1.03787 30.7215 1.94026V3.55166H22.6645V1.94026C22.6645 1.03787 21.9554 0.328857 21.0531 0.328857C20.1507 0.328857 19.4417 1.03787 19.4417 1.94026V3.55166H11.3847C10.4823 3.55166 9.77325 4.26067 9.77325 5.16306V9.99726H54.9999V5.16306C54.9999 4.26067 54.2909 3.55166 53.3885 3.55166Z" fill="#F56C08"/>
<path d="M46.8218 41.1002C45.9468 41.8288 44.8485 42.2254 43.7202 42.2254H9.77336V47.0596C9.77336 47.9503 10.4941 48.671 11.3848 48.671H53.3886C54.2793 48.671 55 47.9503 55 47.0596V28.9962C51.8932 36.6182 47.5579 40.4841 46.8218 41.1002Z" fill="#F56C08"/>
</svg>
