<svg width="55" height="53" viewBox="0 0 55 53" fill="none" xmlns="http://www.w3.org/2000/svg">
<path d="M12.8529 10.0501L34.7788 4.06522L33.6176 1.71822C32.8579 0.192675 31.0051 -0.437308 29.4795 0.322377L9.85121 10.0501H12.8529Z" fill="#F56C08"/>
<path d="M41.5851 4.23811C41.3134 4.23811 41.0415 4.27517 40.7698 4.34929L19.8877 10.05H45.5255L44.562 6.51717C44.1915 5.13985 42.9439 4.23811 41.5851 4.23811Z" fill="#F56C08"/>
<path d="M48.7434 12.2117H3.09433C2.11847 12.2117 1.24761 12.6626 0.679394 13.3729C0.419989 13.7002 0.222347 14.077 0.111173 14.4908C0.0432341 14.7502 0 15.022 0 15.2999V49.7081C0 51.4128 1.38349 52.7962 3.08815 52.7962H48.7372C50.4419 52.7962 51.8254 51.4128 51.8254 49.7081V41.0921H33.5003C30.6036 41.0921 28.2504 38.739 28.2504 35.8423V28.9742C28.2504 27.5537 28.8186 26.2629 29.7389 25.3179C30.5542 24.4779 31.6474 23.9097 32.8703 23.7676C33.0741 23.743 33.2841 23.7305 33.4941 23.7305H51.8254V15.2999C51.8316 13.5952 50.4481 12.2117 48.7434 12.2117Z" fill="#F56C08"/>
<path d="M53.9933 26.6829C53.6844 26.3988 53.32 26.1826 52.9124 26.0405C52.5974 25.9356 52.2639 25.8738 51.9118 25.8738H33.5003C31.7955 25.8738 30.4121 27.2573 30.4121 28.962V35.8362C30.4121 37.5408 31.7955 38.9243 33.5003 38.9243H51.9118C52.2639 38.9243 52.5974 38.8625 52.9124 38.7576C53.32 38.6217 53.6844 38.3993 53.9933 38.1152C54.6109 37.5532 55 36.7379 55 35.8362V28.962C55 28.0602 54.6109 27.2449 53.9933 26.6829ZM39.9483 33.0136C39.9483 33.8659 39.2566 34.5577 38.4042 34.5577H37.379C36.5267 34.5577 35.8349 33.8659 35.8349 33.0136V31.9883C35.8349 31.4942 36.0634 31.0556 36.4278 30.7777C36.6934 30.5739 37.0208 30.4442 37.379 30.4442H38.4042C39.2566 30.4442 39.9483 31.1359 39.9483 31.9883V33.0136Z" fill="#F56C08"/>
</svg>
