<svg width="47" height="55" viewBox="0 0 47 55" fill="none" xmlns="http://www.w3.org/2000/svg">
<path d="M46.5863 14.157C46.5205 12.71 46.5205 11.3288 46.5205 9.94768C46.5205 8.8296 45.6655 7.97459 44.5474 7.97459C36.3262 7.97459 30.0781 5.60688 24.8823 0.542601C24.093 -0.180867 22.9092 -0.180867 22.1199 0.542601C16.9241 5.60688 10.676 7.97459 2.45475 7.97459C1.33667 7.97459 0.481659 8.8296 0.481659 9.94768C0.481659 11.3288 0.481659 12.71 0.415889 14.157C0.15281 27.9686 -0.24181 46.9103 22.8434 54.8685L23.5011 55L24.1588 54.8685C47.1782 46.9103 46.8494 28.0344 46.5863 14.157ZM21.9226 33.296C21.528 33.6248 21.0676 33.8221 20.5415 33.8221H20.4757C19.9495 33.8221 19.4234 33.559 19.0945 33.1644L12.9779 26.3901L15.9376 23.7593L20.7388 29.0867L31.3935 18.9581L34.09 21.852L21.9226 33.296Z" fill="#F56C08"/>
</svg>
