<svg width="55" height="73" viewBox="0 0 55 73" fill="none" xmlns="http://www.w3.org/2000/svg">
<path d="M27.5002 40.1807C34.5099 40.1807 40.1924 34.4982 40.1924 27.4885C40.1924 20.4788 34.5099 14.7963 27.5002 14.7963C20.4905 14.7963 14.808 20.4788 14.808 27.4885C14.808 34.4982 20.4905 40.1807 27.5002 40.1807Z" fill="#F56C08"/>
<path d="M51.9901 22.3634C51.1287 21.723 50.8498 20.655 51.2733 19.6551C52.486 16.8456 51.9818 14.9017 51.3125 13.7056C50.3272 12.0653 48.5753 11.113 46.1624 10.8775C45.0531 10.7411 44.2474 9.93543 44.1173 8.87774C43.8756 6.4132 42.9232 4.66153 41.2232 3.64094C40.0891 3.00463 38.1368 2.50061 35.3501 3.70905C34.3337 4.13255 33.2636 3.85981 32.6129 2.98193C29.5968 -0.988477 25.4157 -1.00498 22.3748 2.99843C21.7365 3.85981 20.6684 4.13875 19.6666 3.71526C16.8612 2.5047 14.9132 3.00463 13.717 3.67605C12.0768 4.66139 11.1244 6.4132 10.8889 8.82613C10.7526 9.93543 9.94688 10.7411 8.8892 10.8713C6.42465 11.113 4.67299 12.0653 3.6524 13.7654C3.01821 14.9016 2.51419 16.8455 3.72051 19.6405C4.15021 20.6547 3.87126 21.7228 2.99339 22.3756C1.00818 23.8836 0 25.6024 0 27.4885C0 29.3745 1.00804 31.0933 3.00989 32.6137C3.87127 33.2541 4.15021 34.3221 3.72672 35.322C2.51405 38.1315 3.01821 40.0753 3.68751 41.2715C4.67285 42.9118 6.42466 43.8641 8.83759 44.0996C9.94689 44.236 10.7526 45.0417 10.8827 46.0993C11.1244 48.5639 12.0768 50.3156 13.7768 51.3362C14.9109 51.9725 16.8569 52.4744 19.6519 51.268C20.6786 50.8383 21.7363 51.1214 22.3871 51.9952C23.8951 53.9804 25.6139 54.9885 27.4999 54.9885C29.386 54.9885 31.1048 53.9805 32.6252 51.9787C33.2656 51.1173 34.3295 50.8445 35.3334 51.2618C38.1429 52.4745 40.0889 51.9703 41.283 51.301C42.9232 50.3157 43.8756 48.5639 44.1111 46.151C44.2474 45.0417 45.0531 44.236 46.1108 44.1058C48.5753 43.8641 50.327 42.9118 51.3476 41.2117C51.9818 40.0755 52.4858 38.1316 51.2795 35.3366C50.8498 34.3224 51.1287 33.2543 52.0066 32.6015C53.9918 31.0935 55 29.3747 55 27.4886C55 25.6026 53.9918 23.8837 51.9901 22.3634ZM27.5002 44.4114C18.169 44.4114 10.5773 36.8196 10.5773 27.4885C10.5773 18.1573 18.169 10.5655 27.5002 10.5655C36.8314 10.5655 44.4232 18.1573 44.4232 27.4885C44.4232 36.8196 36.8314 44.4114 27.5002 44.4114Z" fill="#F56C08"/>
<path d="M19.9498 55.95C18.7681 56.3239 17.5845 56.514 16.4296 56.514C14.7481 56.5161 13.114 56.0967 11.7073 55.3075C10.9923 54.8794 10.2494 54.2563 9.54186 53.5054L4.62575 60.3872C4.16502 61.0317 4.10311 61.8787 4.46456 62.5852C4.82812 63.2897 5.55312 63.7318 6.34653 63.7318H13.5004L17.1465 71.024C17.5059 71.7408 18.2372 72.1933 19.0387 72.1933C19.8403 72.1933 20.5715 71.7408 20.931 71.024L26.7268 59.4324C24.7849 59.2791 22.314 58.5132 19.9498 55.95Z" fill="#F56C08"/>
<path d="M45.4741 53.5271C44.8069 54.2305 44.1147 54.8182 43.4625 55.2105C41.8884 56.0947 40.2749 56.5099 38.5563 56.5099C37.4138 56.5099 36.2384 56.3219 35.0464 55.9481C32.6688 58.5136 30.207 59.2792 28.2734 59.4325L34.0693 71.0242C34.4287 71.741 35.16 72.1934 35.9615 72.1934C36.7631 72.1934 37.4943 71.741 37.8538 71.0242L41.4999 63.7319H48.6538C49.4469 63.7319 50.1722 63.2898 50.5357 62.5854C50.8972 61.8789 50.8353 61.0319 50.3745 60.3874L45.4741 53.5271Z" fill="#F56C08"/>
</svg>
