<svg width="55" height="55" viewBox="0 0 55 55" fill="none" xmlns="http://www.w3.org/2000/svg">
<path d="M34.0276 37.2064C36.1645 35.3673 37.52 32.6444 37.52 29.6105V29.0823C37.52 23.5572 33.0249 19.0621 27.4998 19.0621C21.9746 19.0621 17.4795 23.5572 17.4795 29.0823V29.6105C17.4795 32.6444 18.835 35.3674 20.9719 37.2064C14.0721 39.3254 9.04153 45.7572 9.04153 53.3426C9.04153 54.2163 9.74987 54.9247 10.6236 54.9247H44.3759C45.2497 54.9247 45.958 54.2162 45.958 53.3424C45.958 45.7572 40.9274 39.3254 34.0276 37.2064Z" fill="#F56C08"/>
<path d="M35.9369 6.2054C35.7789 5.719 35.3955 5.33894 34.9078 5.18522L31.1037 3.98649L28.788 0.73923C28.4912 0.322969 28.0112 0.0756836 27.4998 0.0756836C26.9883 0.0756836 26.5085 0.322969 26.2116 0.73923L23.896 3.98671L20.092 5.18543C19.6042 5.33926 19.221 5.71921 19.0628 6.20562C18.9048 6.69181 18.9916 7.22473 19.2958 7.63573L21.6688 10.8414L21.6333 14.8298C21.6288 15.3411 21.8717 15.8231 22.2855 16.1239C22.5593 16.3228 22.8855 16.426 23.2155 16.426C23.3842 16.426 23.5537 16.399 23.7177 16.3441L27.4999 15.0779L31.282 16.344C31.767 16.5068 32.3005 16.4245 32.7141 16.1237C33.1279 15.8231 33.3709 15.341 33.3663 14.8296L33.3308 10.8412L35.7038 7.63551C36.0081 7.22462 36.0948 6.69181 35.9369 6.2054Z" fill="#F56C08"/>
<path d="M54.9225 10.9526C54.7644 10.4663 54.381 10.0863 53.8932 9.93257L50.0893 8.73395L47.7737 5.48648C47.4769 5.07022 46.997 4.82293 46.4855 4.82293C45.9741 4.82293 45.4942 5.07022 45.1973 5.48648L42.8817 8.73395L39.0778 9.93257C38.59 10.0863 38.2066 10.4662 38.0486 10.9526C37.8905 11.4389 37.9773 11.9719 38.2816 12.3829L40.6546 15.5887L40.6191 19.577C40.6145 20.0885 40.8575 20.5705 41.2712 20.8711C41.685 21.1719 42.2184 21.2536 42.7034 21.0916L46.4855 19.8255L50.2676 21.0916C50.4317 21.1466 50.6012 21.1733 50.7698 21.1733C51.0997 21.1733 51.4261 21.0701 51.6999 20.8711C52.1136 20.5706 52.3566 20.0885 52.3519 19.577L52.3165 15.5887L54.6895 12.3829C54.9938 11.9719 55.0806 11.4389 54.9225 10.9526Z" fill="#F56C08"/>
<path d="M16.9512 10.9525C16.7932 10.4662 16.4098 10.0862 15.9221 9.93246L12.1182 8.73385L9.80238 5.48648C9.50546 5.07022 9.02561 4.82293 8.51417 4.82293C8.00274 4.82293 7.52288 5.07022 7.22597 5.48648L4.91038 8.73396L1.10635 9.93257C0.618545 10.0863 0.235263 10.4662 0.0772457 10.9527C-0.0808795 11.439 0.0060249 11.9719 0.310244 12.3829L2.6832 15.5887L2.64775 19.577C2.64324 20.0884 2.88612 20.5704 3.29991 20.871C3.7137 21.1718 4.24726 21.2536 4.73216 21.0915L8.51428 19.8254L12.2964 21.0915C12.4602 21.1463 12.6297 21.1731 12.7984 21.1731C13.1283 21.1731 13.4546 21.0699 13.7284 20.8709C14.1421 20.5704 14.3851 20.0883 14.3806 19.5769L14.3451 15.5886L16.7181 12.3828C17.0224 11.9719 17.1093 11.439 16.9512 10.9525Z" fill="#F56C08"/>
</svg>
