<svg width="76" height="76" viewBox="0 0 76 76" fill="none" xmlns="http://www.w3.org/2000/svg">
<path d="M24.0667 29.1333H26.6V31.6667H24.0667V29.1333Z" fill="#F56C08"/>
<path d="M32.9333 55.7333H35.4667V58.2667H32.9333V55.7333Z" fill="#F56C08"/>
<path d="M40.5333 55.7333H43.0667V58.2667H40.5333V55.7333Z" fill="#F56C08"/>
<path d="M36.7333 50.6667H39.2667V53.2H36.7333V50.6667Z" fill="#F56C08"/>
<path d="M7.6 46.8667H10.1333V49.4H7.6V46.8667Z" fill="#F56C08"/>
<path d="M7.6 54.4667H10.1333V57H7.6V54.4667Z" fill="#F56C08"/>
<path d="M11.4 50.6667H13.9333V53.2H11.4V50.6667Z" fill="#F56C08"/>
<path d="M7.6 62.0667H10.1333V64.6H7.6V62.0667Z" fill="#F56C08"/>
<path d="M7.6 68.4H10.1333V70.9333H7.6V68.4Z" fill="#F56C08"/>
<path d="M11.4 58.2667H13.9333V60.8H11.4V58.2667Z" fill="#F56C08"/>
<path d="M70.6556 73.4667L69.6288 69.3595C69.5603 69.0854 69.4022 68.8421 69.1795 68.6683C68.9569 68.4944 68.6825 68.4 68.4 68.4H65.8667V46.8667H63.3333V48.3211L58.2667 53.7754V48.0424L63.3333 42.5882V44.3333H65.8667V19H72.2C72.4352 19 72.6658 18.9345 72.8659 18.8108C73.066 18.6872 73.2277 18.5102 73.3329 18.2999L75.8662 13.2332C75.9851 12.9954 76.0261 12.7262 75.9835 12.4637C75.9409 12.2013 75.8167 11.9589 75.6287 11.771L67.1333 3.27528V1.26667C67.1333 0.930726 66.9999 0.608544 66.7623 0.370998C66.5248 0.133452 66.2026 2.09236e-09 65.8667 2.09236e-09H62.0667C61.8216 -1.4079e-05 61.5819 0.0710439 61.3764 0.204562C61.1709 0.33808 61.0086 0.528325 60.9091 0.752242L60.0858 2.60632L4.92417 8.87474C4.61488 8.90976 4.32932 9.05743 4.12197 9.28957C3.91462 9.52171 3.80001 9.82207 3.8 10.1333V11.4H1.26667C1.05075 11.4 0.838427 11.4552 0.649849 11.5604C0.46127 11.6655 0.302699 11.8171 0.189194 12.0008C0.0756888 12.1845 0.0110174 12.3941 0.00132093 12.6098C-0.00837553 12.8255 0.0372247 13.0401 0.133792 13.2332L2.66713 18.2999C2.77233 18.5102 2.93403 18.6872 3.13412 18.8108C3.33421 18.9345 3.56478 19 3.8 19H10.1333V16.4667H4.5828L3.31613 13.9333H19V16.4667H12.6667V19H24.0667V24.0667H22.8C22.555 24.0667 22.3152 24.1377 22.1097 24.2712C21.9043 24.4047 21.7419 24.595 21.6424 24.8189L19.1091 30.5189C19.0284 30.7006 18.9915 30.8987 19.0016 31.0972C19.0116 31.2958 19.0682 31.4892 19.1669 31.6618L21.7002 36.0951C21.811 36.289 21.9711 36.4501 22.1642 36.5622C22.3574 36.6743 22.5767 36.7333 22.8 36.7333H24.0667V38.7421L20.6376 42.171C20.4713 42.3373 20.3546 42.5467 20.3006 42.7757C20.2465 43.0046 20.2573 43.2441 20.3317 43.4673L21.5984 47.2673C21.6825 47.5194 21.8438 47.7388 22.0594 47.8942C22.2751 48.0497 22.5342 48.1333 22.8 48.1333H27.8667C28.2026 48.1333 28.5248 47.9999 28.7623 47.7623C28.9999 47.5248 29.1333 47.2026 29.1333 46.8667V43.0667H26.6V45.6H23.713L22.9826 43.4088L26.2284 40.163C26.3462 40.0453 26.4397 39.9056 26.5034 39.7518C26.5672 39.598 26.6 39.4332 26.6 39.2667V36.7333H27.8667C28.09 36.7333 28.3093 36.6743 28.5024 36.5622C28.6956 36.4501 28.8557 36.289 28.9664 36.0951L31.4998 31.6618C31.5984 31.4892 31.6551 31.2958 31.6651 31.0972C31.6751 30.8987 31.6383 30.7006 31.5576 30.5189L29.0242 24.8189C28.9247 24.595 28.7624 24.4047 28.5569 24.2712C28.3515 24.1377 28.1117 24.0667 27.8667 24.0667H26.6V19H42.2839L47.0005 28.4332C47.1057 28.6436 47.2674 28.8205 47.4675 28.9442C47.6675 29.0678 47.8981 29.1333 48.1333 29.1333H55.7333V68.4H53.2C52.9175 68.4 52.6431 68.4944 52.4205 68.6683C52.1978 68.8421 52.0397 69.0854 51.9712 69.3595L50.9444 73.4667H48.1333V54.4667C48.1333 54.185 48.0394 53.9114 47.8665 53.6891L45.5158 50.6667H45.6V46.8667H43.0667V47.5179L38.9999 42.2891C38.8853 42.1417 38.7394 42.0215 38.5729 41.937C38.4064 41.8525 38.2232 41.8059 38.0366 41.8005C37.8499 41.7951 37.6644 41.8311 37.4933 41.9057C37.3221 41.9804 37.1696 42.092 37.0467 42.2326L28.18 52.3659C27.978 52.5968 27.8667 52.8932 27.8667 53.2V61.542L23.6957 57.371C23.5781 57.2533 23.4384 57.16 23.2847 57.0964C23.1311 57.0327 22.9663 57 22.8 57C22.6337 57 22.4689 57.0327 22.3153 57.0964C22.1616 57.16 22.0219 57.2533 21.9043 57.371L19 60.2753V48.1333C19 47.9405 18.9559 47.7502 18.8712 47.5769C18.7865 47.4037 18.6633 47.252 18.5111 47.1336L7.11107 38.2669C6.88872 38.094 6.61505 38 6.33333 38V32.9333H3.8V38C3.46406 38 3.14188 38.1334 2.90433 38.371C2.66679 38.6085 2.53333 38.9307 2.53333 39.2667V54.4667H5.06667V40.5333H5.89871L16.4667 48.7529V62.8086L14.3043 64.971C14.1867 65.0886 14.0934 65.2282 14.0297 65.3819C13.9661 65.5356 13.9333 65.7003 13.9333 65.8667V73.4667H5.06667V57H2.53333V73.4667H0V76H76V73.4667H70.6556ZM28.9823 30.9618L27.1315 34.2H23.5351L21.6847 30.9618L23.6233 26.6H27.0433L28.9823 30.9618ZM63.3333 52.0432V58.4544L58.2667 63.9087V57.4975L63.3333 52.0432ZM63.3333 19V19.1878L58.2667 24.642V19H63.3333ZM58.2667 28.3641L63.3333 22.9099V28.7327L58.2667 34.187V28.3641ZM58.2667 44.3204V37.9091L63.3333 32.4548V38.8661L58.2667 44.3204ZM71.4172 16.4667H31.6667V13.9333H72.6839L71.4172 16.4667ZM71.6753 11.4H67.1333V6.85805L71.6753 11.4ZM62.89 2.53333H64.6V11.4H58.9491L62.89 2.53333ZM6.33333 11.2643L58.8916 5.29166L56.1767 11.4H6.33333V11.2643ZM21.5333 16.4667V13.9333H29.1333V16.4667H21.5333ZM48.9161 26.6L47.6495 24.0667H50.6667V21.5333H46.3828L45.1161 19H55.7333V26.6H48.9161ZM58.2667 67.6308L63.3333 62.1765V68.4H58.2667V67.6308ZM34.2 68.4V73.4667H31.6667V65.8667C31.6667 65.7003 31.6339 65.5356 31.5703 65.3819C31.5066 65.2282 31.4133 65.0886 31.2957 64.971L30.4 64.0753V63.3333H45.6V67.1333H35.4667C35.1307 67.1333 34.8085 67.2668 34.571 67.5043C34.3335 67.7419 34.2 68.0641 34.2 68.4ZM37.9425 45.0558L45.6 54.9013V60.8H30.4V53.676L37.9425 45.0558ZM24.0667 73.4667V68.4H21.5333V73.4667H16.4667V66.3912L22.8 60.0579L29.1333 66.3912V73.4667H24.0667ZM36.7333 73.4667V69.6667H45.6V73.4667H36.7333ZM53.5556 73.4667L54.1889 70.9333H67.411L68.0444 73.4667H53.5556Z" fill="#F56C08"/>
</svg>
