<svg width="76" height="76" viewBox="0 0 76 76" fill="none" xmlns="http://www.w3.org/2000/svg">
<path d="M21.5333 43.0664H24.0666V45.5997H21.5333V43.0664Z" fill="#F56C08"/>
<path d="M26.5998 43.0663H29.1331V45.5996H26.5998V43.0663Z" fill="#F56C08"/>
<path d="M31.6664 43.0663H34.1997V45.5996H31.6664V43.0663Z" fill="#F56C08"/>
<path d="M21.5333 48.133H24.0666V50.6663H21.5333V48.133Z" fill="#F56C08"/>
<path d="M26.5998 48.1329H29.1331V50.6663H26.5998V48.1329Z" fill="#F56C08"/>
<path d="M31.6664 48.1329H34.1997V50.6663H31.6664V48.1329Z" fill="#F56C08"/>
<path d="M36.733 48.1329H39.2664V50.6663H36.733V48.1329Z" fill="#F56C08"/>
<path d="M41.7996 48.1329H44.333V50.6663H41.7996V48.1329Z" fill="#F56C08"/>
<path d="M21.5333 53.1997H24.0666V55.733H21.5333V53.1997Z" fill="#F56C08"/>
<path d="M26.5998 53.1996H29.1331V55.7329H26.5998V53.1996Z" fill="#F56C08"/>
<path d="M31.6664 53.1996H34.1997V55.7329H31.6664V53.1996Z" fill="#F56C08"/>
<path d="M36.733 53.1996H39.2664V55.7329H36.733V53.1996Z" fill="#F56C08"/>
<path d="M41.7996 53.1996H44.333V55.7329H41.7996V53.1996Z" fill="#F56C08"/>
<path d="M21.5333 58.2663H24.0666V60.7997H21.5333V58.2663Z" fill="#F56C08"/>
<path d="M26.5998 58.2662H29.1331V60.7995H26.5998V58.2662Z" fill="#F56C08"/>
<path d="M31.6664 58.2662H34.1997V60.7995H31.6664V58.2662Z" fill="#F56C08"/>
<path d="M36.733 58.2662H39.2664V60.7995H36.733V58.2662Z" fill="#F56C08"/>
<path d="M41.7996 58.2662H44.333V60.7995H41.7996V58.2662Z" fill="#F56C08"/>
<path d="M21.5332 63.3328H24.0665V65.8661H21.5332V63.3328Z" fill="#F56C08"/>
<path d="M26.5998 63.3328H29.1331V65.8661H26.5998V63.3328Z" fill="#F56C08"/>
<path d="M31.6664 63.3328H34.1997V65.8661H31.6664V63.3328Z" fill="#F56C08"/>
<path d="M36.733 63.3328H39.2664V65.8661H36.733V63.3328Z" fill="#F56C08"/>
<path d="M41.7996 63.3328H44.333V65.8661H41.7996V63.3328Z" fill="#F56C08"/>
<path d="M21.5332 68.3994H24.0665V70.9328H21.5332V68.3994Z" fill="#F56C08"/>
<path d="M26.5998 68.3994H29.1331V70.9328H26.5998V68.3994Z" fill="#F56C08"/>
<path d="M31.6664 68.3994H34.1997V70.9328H31.6664V68.3994Z" fill="#F56C08"/>
<path d="M36.733 68.3994H39.2664V70.9328H36.733V68.3994Z" fill="#F56C08"/>
<path d="M41.7996 68.3994H44.333V70.9328H41.7996V68.3994Z" fill="#F56C08"/>
<path d="M74.7327 3.79997H65.8661V1.26666C65.8661 0.56715 65.299 0 64.5995 0H51.9329C51.2334 0 50.6663 0.56715 50.6663 1.26666V3.79997H1.26666C0.56715 3.79997 0 4.36712 0 5.06663V10.1333C0 10.8334 0.56715 11.3999 1.26666 11.3999H5.06663V35.4664C5.06663 36.1665 5.63378 36.733 6.33328 36.733C7.03279 36.733 7.59994 37.3002 7.59994 37.9997C7.59994 38.6998 7.03279 39.2663 6.33328 39.2663C5.63378 39.2663 5.06663 38.6998 5.06663 37.9997H2.53331C2.53702 38.9268 2.88152 39.8205 3.50248 40.5095L0.253579 44.8401L0.269659 44.8525C0.100194 45.0653 0.00556635 45.3281 0 45.5996V50.6663C0 51.0027 0.133593 51.3243 0.371091 51.5618L2.9044 54.0951C3.1419 54.3326 3.46413 54.4662 3.79997 54.4662H8.86659C9.20243 54.4662 9.52466 54.3326 9.76216 54.0951L12.2955 51.5618C12.533 51.3243 12.6666 51.0027 12.6666 50.6663V45.5996C12.661 45.3281 12.5664 45.0653 12.3969 44.8525L12.413 44.8401L9.16409 40.5095C10.0102 39.5694 10.3293 38.2681 10.0145 37.0435C9.70031 35.8189 8.79361 34.833 7.59994 34.4168V11.3999H50.6663V12.6666C50.6663 13.3667 51.2334 13.9332 51.9329 13.9332H54.4662V73.4661H49.3996V22.7998H46.8663V27.8664H39.2663V25.3331H36.733V27.8664H29.1331V26.5998H26.5998V27.8664H18.9998V24.0665H35.4664V21.5332H18.9998V16.4665H16.4665V73.4661H14.4577L8.4955 67.5045C8.00072 67.0097 7.19916 67.0097 6.70437 67.5045L0.742181 73.4661H0V75.9994H75.9994V73.4661H75.0117C75.9029 72.4932 76.2196 71.1239 75.846 69.8578C75.473 68.5924 74.4643 67.614 73.1871 67.28C73.831 65.6923 73.3337 63.8709 71.9718 62.8312C70.6105 61.7915 68.7217 61.7915 67.3604 62.8312C65.9985 63.8709 65.5012 65.6923 66.1451 67.28C64.8679 67.614 63.8591 68.5924 63.4862 69.8578C63.1126 71.1239 63.4293 72.4932 64.3205 73.4661H62.0662V13.9332H64.5995C65.299 13.9332 65.8661 13.3667 65.8661 12.6666V11.3999H74.7327C75.4322 11.3999 75.9994 10.8334 75.9994 10.1333V5.06663C75.9994 4.36712 75.4322 3.79997 74.7327 3.79997ZM6.96661 41.7997L8.86659 44.333H3.79997L5.69995 41.7997H6.96661ZM10.1333 50.1424L8.34212 51.9329H4.32444L2.53331 50.1424V46.8663H10.1333V50.1424ZM69.2863 6.33328L65.8661 8.61363V6.33328H69.2863ZM53.1996 2.53331H58.2662V7.59994H53.1996V2.53331ZM18.9998 6.58686L22.4201 8.86659H15.5796L18.9998 6.58686ZM11.3999 8.61363L7.97969 6.33328H14.8201L11.3999 8.61363ZM23.1796 6.33328H30.02L26.5998 8.61363L23.1796 6.33328ZM34.1997 6.58686L37.6199 8.86659H30.7795L34.1997 6.58686ZM38.3794 6.33328H45.2199L41.7997 8.61363L38.3794 6.33328ZM2.53331 6.33328H3.42022L7.22019 8.86659H2.53331V6.33328ZM45.9794 8.86659L49.7793 6.33328H50.6663V8.86659H45.9794ZM59.5328 69.2863L57.2531 65.8661L59.5328 62.4465V69.2863ZM59.5328 38.8866L57.2531 35.4664L59.5328 32.0468V38.8866ZM56.9995 39.6467L59.2793 43.0663L56.9995 46.4865V39.6467ZM56.9995 31.2867V24.4468L59.2793 27.8664L56.9995 31.2867ZM56.9995 54.8466L59.2793 58.2662L56.9995 61.6864V54.8466ZM59.5328 54.079L57.2531 50.6663L59.5328 47.2467V54.079ZM57.2531 20.2665L59.5328 16.8469V23.6867L57.2531 20.2665ZM56.9995 16.0868V13.9332H58.4332L56.9995 16.0868ZM46.8663 30.3997V43.0663H39.2663V30.3997H46.8663ZM36.733 30.3997V41.2931L33.82 38.4141C33.5837 38.1809 33.2652 38.0492 32.9331 38.0479H29.1331V30.3997H36.733ZM26.5998 30.3997V32.5113H18.9998V30.3997H26.5998ZM7.59994 70.1906L10.8754 73.4661H4.32444L7.59994 70.1906ZM18.9998 73.4661V35.0446H26.5998V39.3195C26.5998 40.0197 27.1669 40.5862 27.8664 40.5862H32.4123L37.1128 45.2341C37.349 45.4673 37.6676 45.599 37.9997 45.5996H46.8663V73.4661H18.9998ZM56.9995 70.0465L59.2793 73.4661H56.9995V70.0465ZM72.1994 72.1994C71.4999 72.1994 70.9328 71.6329 70.9328 70.9328C70.9328 70.2332 71.4999 69.6661 72.1994 69.6661C72.8989 69.6661 73.4661 70.2332 73.4661 70.9328C73.4661 71.6329 72.8989 72.1994 72.1994 72.1994ZM69.6661 64.5995C70.3656 64.5995 70.9328 65.1666 70.9328 65.8661C70.9328 66.5663 70.3656 67.1328 69.6661 67.1328C68.9666 67.1328 68.3994 66.5663 68.3994 65.8661C68.3994 65.1666 68.9666 64.5995 69.6661 64.5995ZM67.1328 69.6661C67.8323 69.6661 68.3994 70.2332 68.3994 70.9328C68.3994 71.6329 67.8323 72.1994 67.1328 72.1994C66.4333 72.1994 65.8661 71.6329 65.8661 70.9328C65.8661 70.2332 66.4333 69.6661 67.1328 69.6661ZM63.3328 11.3999H53.1996V10.1333H59.5328C60.2323 10.1333 60.7995 9.56672 60.7995 8.86659V2.53331H63.3328V11.3999ZM70.0458 8.86659L73.4661 6.58686V8.86659H70.0458Z" fill="#F56C08"/>
</svg>
