<svg width="76" height="76" viewBox="0 0 76 76" fill="none" xmlns="http://www.w3.org/2000/svg">
<path d="M67.2472 53.512C66.8304 53.3392 66.3507 53.4347 66.0315 53.7537L53.8409 65.9442C53.522 66.2634 53.4265 66.7431 53.5993 67.16C53.7718 67.5769 54.1788 67.8486 54.6299 67.8486H66.8205C67.4366 67.8486 67.936 67.3492 67.936 66.733V54.5425C67.9358 54.0914 67.664 53.6846 67.2472 53.512ZM57.3225 65.6177L65.7047 57.2356V65.6177H57.3225Z" fill="#F56C08"/>
<path d="M75.3114 35.632C74.8946 35.4592 74.4148 35.5546 74.0957 35.8736L70.7548 39.2145V16.499C70.7548 15.8828 70.2553 15.3835 69.6393 15.3835H61.0684L64.1796 12.2722C64.1801 12.2718 64.1805 12.2712 64.181 12.2707L67.1788 9.27289C67.8211 8.6306 68.1748 7.7762 68.1748 6.86776C68.1748 5.95932 67.8211 5.10521 67.1788 4.46263L63.7122 0.996016C63.0699 0.353727 62.2155 0 61.3071 0C60.3986 0 59.5444 0.353727 58.9019 0.996016L44.5146 15.3833H9.88891V4.34773C9.88891 3.73157 9.38941 3.23223 8.7734 3.23223C3.93582 3.23252 0 7.16805 0 12.0059V59.3851C0 59.4675 0.0095 59.5476 0.0264219 59.6248C0.1805 61.6776 1.0686 63.5848 2.55283 65.0327C4.13933 66.58 6.23363 67.4322 8.4501 67.4322H42.537L36.1172 73.852C35.7982 74.1711 35.7028 74.6507 35.8754 75.0677C36.048 75.4845 36.4549 75.7563 36.906 75.7563H74.8845C75.5005 75.7563 76 75.2569 76 74.6408V36.6626C76 36.2115 75.7281 35.8046 75.3114 35.632ZM60.4798 2.57376C60.9358 2.11746 61.6788 2.11746 62.1348 2.57376L65.6015 6.04052C66.0578 6.49666 66.0578 7.2393 65.6015 7.69559L63.3911 9.90613L58.2691 4.78429L60.4798 2.57376ZM56.6915 6.36188L61.8134 11.4836L59.7666 13.5304L54.645 8.40869L56.6915 6.36188ZM73.7693 49.1969H71.7112C71.095 49.1969 70.5957 49.6963 70.5957 50.3124C70.5957 50.9286 71.095 51.428 71.7112 51.428H73.7693V54.7895H71.7112C71.095 54.7895 70.5957 55.2888 70.5957 55.905C70.5957 56.5211 71.095 57.0205 71.7112 57.0205H73.7693V60.3819H71.7112C71.095 60.3819 70.5957 60.8812 70.5957 61.4974C70.5957 62.1135 71.095 62.6129 71.7112 62.6129H73.7693V65.9744H71.7112C71.095 65.9744 70.5957 66.4739 70.5957 67.0899C70.5957 67.7061 71.095 68.2054 71.7112 68.2054H73.7693V73.5257H39.599L50.8666 62.2582C51.3022 61.8224 51.3022 61.1163 50.8666 60.6807C50.8165 60.6306 50.7628 60.5873 50.7065 60.5487C50.2722 60.2512 49.6746 60.295 49.2888 60.6807L44.768 65.2015H8.45025C5.06706 65.2015 2.34353 62.5602 2.23636 59.1831C2.24274 58.9711 2.25922 58.7609 2.28564 58.5531C2.28579 58.5519 2.28594 58.5507 2.28609 58.5495C2.29855 58.4508 2.31355 58.3526 2.33062 58.2549C2.33255 58.2438 2.33463 58.2326 2.33655 58.2215C2.35214 58.1344 2.36966 58.0477 2.3888 57.9613C2.39415 57.9372 2.39979 57.9132 2.40543 57.8893C2.42235 57.8163 2.44061 57.7437 2.4602 57.6714C2.47089 57.6322 2.48202 57.5935 2.49345 57.5544C2.50978 57.4977 2.5267 57.4412 2.54466 57.3852C2.56262 57.3292 2.58177 57.2739 2.60122 57.2185C2.61473 57.1798 2.62809 57.141 2.64263 57.1026C2.6698 57.0295 2.69859 56.9572 2.72828 56.8856C2.73674 56.8649 2.74505 56.844 2.75381 56.8234C2.79196 56.7343 2.83159 56.6463 2.87345 56.5593C2.87523 56.5556 2.87687 56.5519 2.87865 56.5482C3.75116 54.7426 5.42925 53.3964 7.4431 52.9787C7.44874 52.9775 7.45438 52.9762 7.46002 52.975C7.55235 52.9561 7.64557 52.9399 7.73938 52.9249C7.75497 52.9224 7.77056 52.9193 7.78644 52.9169C7.8712 52.904 7.95684 52.8939 8.04249 52.8843C8.06654 52.8816 8.09044 52.8779 8.11463 52.8755C8.19731 52.8672 8.28073 52.8617 8.36416 52.8565C8.39058 52.8549 8.417 52.8521 8.44342 52.8507C8.55267 52.8452 8.66281 52.8424 8.7734 52.8424C9.38941 52.8424 9.88891 52.3431 9.88891 51.7269V43.6387C9.88891 43.0225 9.38941 42.5232 8.7734 42.5232C8.15738 42.5232 7.65789 43.0225 7.65789 43.6387V50.6816C5.77422 50.9198 4.02577 51.76 2.64709 53.1063C2.50206 53.2479 2.36461 53.3952 2.23072 53.5448V12.0059C2.23072 8.77874 4.57989 6.0895 7.65774 5.55839V39.1768C7.65774 39.7928 8.15723 40.2925 8.77325 40.2925C9.38927 40.2925 9.88876 39.793 9.88876 39.177V17.6145H42.2838L36.1171 23.7812C35.6814 24.217 35.6814 24.9231 36.1171 25.3588C36.5527 25.7943 37.259 25.7943 37.6945 25.3588L45.7655 17.2878C45.7658 17.2875 45.766 17.2872 45.7663 17.287L53.0672 9.98613L58.1887 15.108L57.5878 15.7088C57.5874 15.7093 57.5868 15.7097 57.5863 15.7102L35.0939 38.2029L29.9722 33.0812L34.4057 28.6477C34.8414 28.2119 34.8414 27.5058 34.4057 27.0701C33.9701 26.6346 33.2638 26.6346 32.8283 27.0701L27.6058 32.2924C27.5779 32.3203 27.5518 32.3499 27.5273 32.3802C27.5191 32.3903 27.5119 32.4011 27.5041 32.4116C27.4884 32.4326 27.473 32.4536 27.4586 32.4756C27.4504 32.4884 27.443 32.5014 27.4353 32.5146C27.4229 32.5354 27.4111 32.5565 27.4002 32.578C27.3931 32.592 27.3867 32.6061 27.3802 32.6206C27.3702 32.6424 27.361 32.6647 27.3526 32.687C27.3496 32.6948 27.3458 32.7023 27.3429 32.7101L23.688 43.0642C23.6684 43.1201 23.6543 43.1768 23.6437 43.2339H19.934C19.318 43.2339 18.8185 43.7332 18.8185 44.3494C18.8185 44.9656 19.318 45.4649 19.934 45.4649H50.8259C51.4421 45.4649 51.9414 44.9656 51.9414 44.3494C51.9414 43.7332 51.4421 43.2339 50.8259 43.2339H28.6622L35.4651 40.8325C35.4708 40.8304 35.4761 40.8276 35.4818 40.8255C35.5082 40.8157 35.5342 40.8047 35.5598 40.793C35.5701 40.7882 35.5803 40.7838 35.5903 40.7789C35.617 40.7655 35.6433 40.7508 35.6691 40.7351C35.6774 40.7301 35.686 40.7255 35.6942 40.7203C35.721 40.703 35.7472 40.6842 35.7728 40.6643C35.7792 40.6594 35.7859 40.6551 35.7921 40.6501C35.8232 40.6251 35.8536 40.5983 35.8824 40.5695L58.8374 17.6146H68.5237V41.4457L52.5672 57.4023C52.1315 57.8381 52.1315 58.5442 52.5672 58.9799C52.5944 59.007 52.6227 59.0326 52.652 59.0565C52.8565 59.2231 53.1063 59.3066 53.356 59.3066C53.6057 59.3066 53.8556 59.2231 54.06 59.0565C54.0893 59.0327 54.1176 59.007 54.1448 58.9799C54.1444 58.9803 54.1453 58.9794 54.1448 58.9799L73.7693 39.3552V49.1969ZM33.0536 39.3175L29.8584 40.4455L27.7295 38.3166L28.8574 35.1213L33.0536 39.3175Z" fill="#F56C08"/>
</svg>
