<svg width="55" height="49" fill="none" xmlns="http://www.w3.org/2000/svg"><path d="M1.609 39.002H43.72a1.61 1.61 0 001.032-.373c.405-.338 9.631-8.275 10.194-25.409H9.72C9.16 28.773.662 36.083.573 36.156a1.615 1.615 0 001.036 2.846zm51.78-35.45H45.33V1.94c0-.902-.709-1.611-1.61-1.611-.903 0-1.612.709-1.612 1.611v1.612h-8.165V1.94c0-.902-.709-1.611-1.611-1.611s-1.611.709-1.611 1.611v1.612h-8.058V1.94c0-.902-.709-1.611-1.61-1.611-.903 0-1.612.709-1.612 1.611v1.612h-8.057c-.903 0-1.612.709-1.612 1.611v4.834H55V5.163c0-.902-.71-1.611-1.611-1.611z" fill="#F56C08"/><path d="M46.822 41.1a4.85 4.85 0 01-3.102 1.125H9.773v4.835c0 .89.721 1.611 1.612 1.611h42.004c.89 0 1.611-.72 1.611-1.611V28.996c-3.107 7.622-7.442 11.488-8.178 12.104z" fill="#F56C08"/></svg>