<svg width="55" height="72" fill="none" xmlns="http://www.w3.org/2000/svg"><path d="M50.658 50.038c-1.597-1.76-3.522-2.62-5.979-2.62h-5.177l-3.398-3.276c-2.498 2.047-5.528 3.235-8.804 3.235-3.071 0-5.979-1.065-8.354-2.907l-3.03 2.907h-5.388c-2.743 0-4.873.942-6.551 2.866C-.896 55.894-.077 67.973.29 71.7h54.543c.287-3.767.778-16.134-4.176-21.662z" fill="#F56C08"/><path d="M13.107 24.405c-.983.819-1.638 2.13-1.638 3.644 0 2.253 1.474 4.095 3.358 4.423.41 3.398 1.801 6.388 3.89 8.599.45.45.9.9 1.392 1.27.614.49 1.27.9 1.965 1.269a10.893 10.893 0 005.119 1.269c1.842 0 3.562-.45 5.118-1.27a12.386 12.386 0 001.966-1.269c.491-.368.942-.819 1.392-1.27 2.047-2.21 3.48-5.159 3.85-8.557h.122c2.17 0 3.89-2.007 3.89-4.464 0-1.515-.655-2.825-1.638-3.644H13.107zm29.047-8.599c-1.27-4.218-4.627-8.517-8.886-10.728v11.096c-.04.45-.123.86-.327 1.27-.533 1.024-1.597 1.76-2.826 1.76h-5.16c-1.146 0-2.17-.614-2.702-1.515-.245-.368-.368-.777-.45-1.228-.041-.164-.041-.287-.041-.45V5.037c-4.259 2.252-7.616 6.551-8.886 10.769l-.286.9h-2.334v5.12h34.49v-5.12H42.44l-.287-.9z" fill="#F56C08"/><path d="M24.94 17.935h5.12c.736 0 1.35-.41 1.678-1.023.164-.287.246-.574.246-.901V2.539c0-.328-.082-.614-.164-.901C31.452.696 30.51 0 29.445 0h-4.504c-.983 0-1.802.737-1.884 1.679 0 .082-.04.164-.04.246V16.01c0 .41.122.778.327 1.105.368.492.942.82 1.597.82z" fill="#F56C08"/></svg>