<svg width="55" height="53" fill="none" xmlns="http://www.w3.org/2000/svg"><path d="M12.853 10.05l21.926-5.985-1.161-2.347A3.09 3.09 0 0029.479.322L9.852 10.05h3.002zm28.732-5.812c-.272 0-.544.037-.815.111L19.888 10.05h25.637l-.963-3.533a3.083 3.083 0 00-2.977-2.279zm7.158 7.974H3.094A3.091 3.091 0 000 15.3v34.408a3.09 3.09 0 003.088 3.088h45.65a3.09 3.09 0 003.087-3.088v-8.616H33.5a5.253 5.253 0 01-5.25-5.25v-6.868a5.23 5.23 0 011.489-3.656 5.198 5.198 0 013.755-1.588h18.331V15.3a3.08 3.08 0 00-3.082-3.088z" fill="#F56C08"/><path d="M53.993 26.683a3.087 3.087 0 00-2.081-.81H33.5a3.09 3.09 0 00-3.088 3.089v6.874a3.09 3.09 0 003.088 3.088h18.412a3.15 3.15 0 001-.166 2.997 2.997 0 001.081-.643A3.077 3.077 0 0055 35.836v-6.874c0-.902-.39-1.717-1.007-2.28zm-14.045 6.33c0 .853-.691 1.545-1.544 1.545H37.38a1.545 1.545 0 01-1.544-1.544v-1.026c0-.494.228-.932.593-1.21a1.56 1.56 0 01.951-.334h1.025c.853 0 1.544.692 1.544 1.544v1.026z" fill="#F56C08"/></svg>