<svg width="47" height="55" fill="none" xmlns="http://www.w3.org/2000/svg"><path d="M46.586 14.157c-.066-1.447-.066-2.828-.066-4.21a1.938 1.938 0 00-1.973-1.972c-8.22 0-14.469-2.368-19.665-7.432a2.03 2.03 0 00-2.762 0C16.924 5.607 10.676 7.975 2.455 7.975A1.938 1.938 0 00.482 9.948c0 1.38 0 2.762-.066 4.209C.153 27.969-.242 46.91 22.843 54.869l.658.131.658-.132c23.02-7.958 22.69-26.834 22.427-40.711zM21.923 33.296c-.395.329-.855.526-1.381.526h-.066a1.851 1.851 0 01-1.381-.658l-6.117-6.774 2.96-2.63 4.8 5.327 10.655-10.129 2.697 2.894-12.167 11.444z" fill="#F56C08"/></svg>