<svg width="55" height="73" fill="none" xmlns="http://www.w3.org/2000/svg"><path d="M27.5 40.18c7.01 0 12.692-5.682 12.692-12.692S34.51 14.796 27.5 14.796 14.808 20.48 14.808 27.488c0 7.01 5.683 12.693 12.692 12.693z" fill="#F56C08"/><path d="M51.99 22.363c-.861-.64-1.14-1.708-.717-2.708 1.213-2.81.709-4.753.04-5.95-.986-1.64-2.738-2.592-5.15-2.828-1.11-.136-1.916-.942-2.046-2-.241-2.464-1.194-4.215-2.894-5.236-1.134-.636-3.086-1.14-5.873.068-1.016.424-2.086.15-2.737-.727-3.016-3.97-7.197-3.987-10.238.016-.639.862-1.707 1.14-2.708.717-2.806-1.21-4.754-.71-5.95-.039-1.64.985-2.593 2.737-2.828 5.15-.136 1.11-.942 1.915-2 2.045-2.464.242-4.216 1.194-5.237 2.894-.634 1.137-1.138 3.08.069 5.875.43 1.015.15 2.083-.728 2.736C1.008 23.884 0 25.602 0 27.488c0 1.887 1.008 3.605 3.01 5.126.861.64 1.14 1.708.717 2.708-1.213 2.81-.709 4.753-.04 5.95.986 1.64 2.738 2.592 5.15 2.828 1.11.136 1.916.942 2.046 2 .241 2.464 1.194 4.216 2.894 5.236 1.134.636 3.08 1.138 5.875-.068 1.027-.43 2.084-.147 2.735.727 1.508 1.985 3.227 2.994 5.113 2.994 1.886 0 3.605-1.008 5.125-3.01.64-.862 1.705-1.135 2.708-.717 2.81 1.212 4.756.708 5.95.039 1.64-.985 2.593-2.737 2.828-5.15.136-1.11.942-1.915 2-2.045 2.464-.242 4.216-1.194 5.237-2.894.634-1.137 1.138-3.08-.069-5.875-.43-1.015-.15-2.083.728-2.736C53.992 31.094 55 29.376 55 27.49c0-1.886-1.008-3.605-3.01-5.126zM27.5 44.411c-9.331 0-16.923-7.591-16.923-16.923 0-9.33 7.592-16.922 16.923-16.922s16.923 7.591 16.923 16.922c0 9.332-7.592 16.923-16.923 16.923zM19.95 55.95a11.673 11.673 0 01-3.52.564 9.642 9.642 0 01-4.723-1.207c-.715-.428-1.458-1.05-2.165-1.802l-4.916 6.882a2.118 2.118 0 00-.161 2.198 2.116 2.116 0 001.882 1.147H13.5l3.646 7.292a2.116 2.116 0 003.785 0l5.796-11.592c-1.942-.153-4.413-.919-6.777-3.482zm25.524-2.423c-.667.703-1.36 1.291-2.011 1.684-1.575.884-3.188 1.299-4.907 1.299a11.72 11.72 0 01-3.51-.562c-2.377 2.566-4.839 3.331-6.773 3.484l5.796 11.592a2.116 2.116 0 003.785 0l3.646-7.292h7.154c.793 0 1.518-.442 1.882-1.147.361-.706.3-1.553-.162-2.198l-4.9-6.86z" fill="#F56C08"/></svg>