<svg width="55" height="55" fill="none" xmlns="http://www.w3.org/2000/svg"><path d="M34.028 37.206a10.001 10.001 0 003.492-7.596v-.528c0-5.525-4.495-10.02-10.02-10.02-5.525 0-10.02 4.495-10.02 10.02v.528a10 10 0 003.492 7.596c-6.9 2.12-11.93 8.551-11.93 16.137 0 .873.708 1.582 1.582 1.582h33.752c.874 0 1.582-.709 1.582-1.583 0-7.585-5.03-14.017-11.93-16.136zm1.909-31.001a1.582 1.582 0 00-1.03-1.02l-3.803-1.199L28.788.74a1.582 1.582 0 00-2.576 0l-2.316 3.248-3.804 1.198a1.583 1.583 0 00-.796 2.45l2.373 3.206-.036 3.989a1.583 1.583 0 002.085 1.514l3.782-1.266 3.782 1.266a1.58 1.58 0 002.084-1.514l-.035-3.989 2.373-3.205c.304-.411.39-.944.233-1.43zm18.985 4.748a1.583 1.583 0 00-1.029-1.02L50.09 8.734l-2.315-3.248a1.582 1.582 0 00-2.577 0l-2.315 3.248-3.804 1.199a1.582 1.582 0 00-.796 2.45l2.373 3.206-.036 3.988a1.582 1.582 0 002.084 1.515l3.782-1.266 3.783 1.266a1.579 1.579 0 001.432-.22c.414-.301.657-.784.652-1.295l-.035-3.988 2.373-3.206c.304-.411.39-.944.233-1.43zm-37.971 0a1.582 1.582 0 00-1.029-1.02l-3.804-1.2-2.316-3.247a1.582 1.582 0 00-2.576 0L4.91 8.734 1.106 9.933a1.582 1.582 0 00-.796 2.45l2.373 3.206-.035 3.988a1.582 1.582 0 002.084 1.514l3.782-1.266 3.782 1.267a1.581 1.581 0 002.085-1.515l-.036-3.988 2.373-3.206c.304-.411.391-.944.233-1.43z" fill="#F56C08"/></svg>